<?xml version="1.0" encoding="UTF-8" standalone="no"?>
<!-- Created with Inkscape (http://www.inkscape.org/) -->

<svg
   version="1.1"
   id="svg1"
   width="333.33334"
   height="333.33334"
   viewBox="0 0 333.33334 333.33334"
   sodipodi:docname="logo-small.ai"
   xmlns:inkscape="http://www.inkscape.org/namespaces/inkscape"
   xmlns:sodipodi="http://sodipodi.sourceforge.net/DTD/sodipodi-0.dtd"
   xmlns="http://www.w3.org/2000/svg"
   xmlns:svg="http://www.w3.org/2000/svg">
  <defs
     id="defs1">
    <clipPath
       clipPathUnits="userSpaceOnUse"
       id="clipPath1">
      <path
         d="m 115.485,127.25 h 3.357 v -1.267 h -3.357 z"
         transform="translate(-118.3752,-125.9831)"
         id="path1" />
    </clipPath>
    <clipPath
       clipPathUnits="userSpaceOnUse"
       id="clipPath3">
      <path
         d="M 0,250 H 250 V 0 H 0 Z"
         transform="matrix(1.3333333,0,0,-1.3333333,0,333.33333)"
         id="path3" />
    </clipPath>
    <clipPath
       clipPathUnits="userSpaceOnUse"
       id="clipPath4">
      <path
         d="m 122.065,73.2477 h 4.193 v -8.925 h -4.193 z"
         transform="translate(-122.0647,-64.322704)"
         id="path4" />
    </clipPath>
    <clipPath
       clipPathUnits="userSpaceOnUse"
       id="clipPath6">
      <path
         d="M 0,250 H 250 V 0 H 0 Z"
         transform="matrix(1.3333333,0,0,-1.3333333,0,333.33333)"
         id="path6" />
    </clipPath>
    <clipPath
       clipPathUnits="userSpaceOnUse"
       id="clipPath7">
      <path
         d="m 121.539,64.3227 h 0.526 V 63.526 h -0.526 z"
         transform="translate(-121.5402,-63.526002)"
         id="path7" />
    </clipPath>
    <clipPath
       clipPathUnits="userSpaceOnUse"
       id="clipPath9">
      <path
         d="M 0,250 H 250 V 0 H 0 Z"
         transform="matrix(1.3333333,0,0,-1.3333333,0,333.33333)"
         id="path9" />
    </clipPath>
    <clipPath
       clipPathUnits="userSpaceOnUse"
       id="clipPath10">
      <path
         d="m 121.523,63.5259 h 4.315 v -0.5637 h -4.315 z"
         transform="translate(-125.83851,-63.202902)"
         id="path10" />
    </clipPath>
    <clipPath
       clipPathUnits="userSpaceOnUse"
       id="clipPath12">
      <path
         d="M 0,250 H 250 V 0 H 0 Z"
         transform="matrix(1.3333333,0,0,-1.3333333,0,333.33333)"
         id="path12" />
    </clipPath>
    <clipPath
       clipPathUnits="userSpaceOnUse"
       id="clipPath13">
      <path
         d="m 121.456,185.643 h 42.243 V 63.1791 h -42.243 z"
         transform="translate(-121.4563,-185.4125)"
         id="path13" />
    </clipPath>
    <clipPath
       clipPathUnits="userSpaceOnUse"
       id="clipPath15">
      <path
         d="M 0,250 H 250 V 0 H 0 Z"
         transform="matrix(1.3333333,0,0,-1.3333333,0,333.33333)"
         id="path15" />
    </clipPath>
    <clipPath
       clipPathUnits="userSpaceOnUse"
       id="clipPath16">
      <path
         d="m 120.871,186.702 h 96.533 V 63.2026 h -96.533 z"
         transform="translate(-121.4563,-185.4125)"
         id="path16" />
    </clipPath>
    <clipPath
       clipPathUnits="userSpaceOnUse"
       id="clipPath18">
      <path
         d="M 0,250 H 250 V 0 H 0 Z"
         transform="matrix(1.3333333,0,0,-1.3333333,0,333.33333)"
         id="path18" />
    </clipPath>
    <clipPath
       clipPathUnits="userSpaceOnUse"
       id="clipPath19">
      <path
         d="M 48.1931,185.412 H 126.435 V 63.1318 H 48.1931 Z"
         transform="translate(-48.193101,-123.0758)"
         id="path19" />
    </clipPath>
    <clipPath
       clipPathUnits="userSpaceOnUse"
       id="clipPath21">
      <path
         d="M 0,250 H 250 V 0 H 0 Z"
         transform="matrix(1.3333333,0,0,-1.3333333,0,333.33333)"
         id="path21" />
    </clipPath>
    <clipPath
       clipPathUnits="userSpaceOnUse"
       id="clipPath22">
      <path
         d="M 5.97273,187.528 H 44.349 V 62.2245 H 5.97273 Z"
         transform="translate(-19.538301,-116.8438)"
         id="path22" />
    </clipPath>
    <clipPath
       clipPathUnits="userSpaceOnUse"
       id="clipPath24">
      <path
         d="M 0,250 H 250 V 0 H 0 Z"
         transform="matrix(1.3333333,0,0,-1.3333333,0,333.33333)"
         id="path24" />
    </clipPath>
    <clipPath
       clipPathUnits="userSpaceOnUse"
       id="clipPath25">
      <path
         d="m 205.651,187.776 h 38.376 V 62.4725 h -38.376 z"
         transform="translate(-230.46171,-117.0916)"
         id="path25" />
    </clipPath>
    <clipPath
       clipPathUnits="userSpaceOnUse"
       id="clipPath27">
      <path
         d="M 0,250 H 250 V 0 H 0 Z"
         transform="matrix(1.3333333,0,0,-1.3333333,0,333.33333)"
         id="path27" />
    </clipPath>
  </defs>
  <sodipodi:namedview
     id="namedview1"
     pagecolor="#ffffff"
     bordercolor="#000000"
     borderopacity="0.25"
     inkscape:showpageshadow="2"
     inkscape:pageopacity="0.0"
     inkscape:pagecheckerboard="0"
     inkscape:deskcolor="#d1d1d1">
    <inkscape:page
       x="0"
       y="0"
       inkscape:label="1"
       id="page1"
       width="333.33334"
       height="333.33334"
       margin="82.966003 7.9640002 82.966667 7.9636402"
       bleed="0" />
  </sodipodi:namedview>
  <g
     id="layer-MC0"
     inkscape:groupmode="layer"
     inkscape:label="Слой 1">
    <g
       opacity="0.736679"
       id="g2"
       clip-path="url(#clipPath3)">
      <path
         d="M 0,0 C 0.146,0.395 0.319,0.868 0.467,1.267 -0.678,0.789 -1.798,0.536 -2.89,0.53 -1.952,0.536 -0.986,0.338 0,0"
         style="fill:#dcdaff;fill-opacity:1;fill-rule:nonzero;stroke:none"
         transform="matrix(1.3333333,0,0,-1.3333333,157.8336,165.35587)"
         clip-path="url(#clipPath1)"
         id="path2" />
    </g>
    <g
       opacity="0.736679"
       id="g5"
       clip-path="url(#clipPath6)">
      <path
         d="M 0,0 C 1.371,1.577 2.391,3.107 3.015,4.587 3.599,6.37 3.977,7.791 4.194,8.925 3.38,5.987 2.274,3.452 0.874,1.325 0.291,0.515 0.223,0.356 0,0"
         style="fill:#dcdaff;fill-opacity:1;fill-rule:nonzero;stroke:none"
         transform="matrix(1.3333333,0,0,-1.3333333,162.75293,247.56973)"
         clip-path="url(#clipPath4)"
         id="path5" />
    </g>
    <g
       opacity="0.736679"
       id="g8"
       clip-path="url(#clipPath9)">
      <path
         d="M 0,0 C 0.004,0.05 0.39,0.583 0.524,0.797 0.348,0.594 0.188,0.393 -0.001,0.189 Z"
         style="fill:#dcdaff;fill-opacity:1;fill-rule:nonzero;stroke:none"
         transform="matrix(1.3333333,0,0,-1.3333333,162.0536,248.632)"
         clip-path="url(#clipPath7)"
         id="path8" />
    </g>
    <g
       opacity="0.736679"
       id="g11"
       clip-path="url(#clipPath12)">
      <path
         d="m 0,0 -4.296,-0.024 -0.002,0.347 c 0,-0.002 -0.018,-0.024 -0.018,-0.028 l 0.005,-0.536 c 0.119,0.001 0.177,0.062 0.177,0.181 z"
         style="fill:#dcdaff;fill-opacity:1;fill-rule:nonzero;stroke:none"
         transform="matrix(1.3333333,0,0,-1.3333333,167.78467,249.0628)"
         clip-path="url(#clipPath10)"
         id="path11" />
    </g>
    <g
       opacity="0.736679"
       id="g14"
       clip-path="url(#clipPath15)">
      <path
         d="m 0,0 c 1.59,-1.436 2.848,-3.595 3.74,-6.547 0.721,-1.186 1.125,-9.932 1.213,-26.234 l 0.026,-4.752 c 0.257,0.705 0.426,1.149 0.687,1.864 l 0.177,10e-4 -0.579,-24.635 c 0.477,-22.131 0.727,-35.1 0.747,-38.908 0.031,-5.593 -0.363,-9.88 -1.18,-12.86 -0.007,-0.031 -0.021,-0.061 -0.028,-0.094 -0.217,-1.134 -0.595,-2.554 -1.179,-4.338 -0.624,-1.48 -1.644,-3.01 -3.015,-4.587 -0.134,-0.214 -0.52,-0.747 -0.524,-0.797 l 0.002,-0.346 4.296,0.023 36.737,0.521 c 0.119,10e-4 0.177,0.06 0.176,0.179 l -0.002,0.356 c 0,0.119 -0.24,0.357 -0.718,0.711 -1.679,2.49 -2.76,4.566 -3.245,6.229 -0.64,1.311 -1.147,3.14 -1.534,5.428 -1.251,-0.494 -2.581,-0.772 -4.008,-0.78 0.304,32.793 -0.356,65.553 -0.536,98.349 1.806,0.01 3.485,-0.294 5.037,-0.902 0.043,0.114 0.08,0.251 0.125,0.357 0.936,2.981 2.878,6.8 5.828,11.457 l -0.002,0.536 z"
         style="fill:#dcdaff;fill-opacity:1;fill-rule:nonzero;stroke:none"
         transform="matrix(1.3333333,0,0,-1.3333333,161.94173,86.116667)"
         clip-path="url(#clipPath13)"
         id="path14" />
    </g>
    <g
       opacity="0.736679"
       id="g17"
       clip-path="url(#clipPath18)">
      <path
         d="m 0,0 42.241,0.231 10e-4,-0.536 c -2.95,-4.657 -4.892,-8.476 -5.828,-11.457 -0.044,-0.107 -0.082,-0.243 -0.125,-0.357 2.54,-0.995 4.741,-2.812 6.601,-5.46 1.08,-1.541 1.983,-3.442 2.709,-5.699 1.332,-4.276 2.001,-6.95 2.007,-8.021 1.228,-15.961 1.341,-33.61 0.626,-49.618 -1.712,-16.003 -5.864,-25.274 -12.435,-27.869 0.386,-2.289 0.893,-4.117 1.533,-5.428 0.485,-1.663 1.566,-3.739 3.246,-6.229 0.478,-0.354 0.717,-0.592 0.718,-0.711 l 0.002,-0.356 c 0,-0.119 -0.058,-0.178 -0.177,-0.179 l -36.737,-0.521 28.724,0.157 c 7.378,0.04 12.136,0.304 14.276,0.792 4.993,0.741 9.092,2.072 12.294,3.993 7.474,4.206 13.504,11.2 18.092,20.983 1.645,3.817 3.052,7.81 4.22,11.981 0.933,3.337 1.742,7.745 2.427,13.223 0.219,3.452 0.448,5.178 0.686,5.179 0.468,1.431 1.352,2.804 2.654,4.12 2.486,2.274 5.218,3.421 8.192,3.437 -2.379,-0.015 -4.465,0.51 -6.256,1.571 -2.267,1.178 -3.945,3.252 -5.032,6.221 -0.244,1.188 -0.736,3.983 -1.474,8.382 -1.461,6.061 -2.855,10.752 -4.182,14.077 -1.687,3.918 -3.25,6.944 -4.69,9.078 -1.203,2.374 -3.54,5.456 -7.011,9.245 -2.871,2.602 -5.201,4.434 -6.991,5.495 -2.031,1.298 -3.879,2.239 -5.548,2.825 C 50.111,0.428 42.906,1.34 33.148,1.287 L -0.585,1.104 -0.584,0.569 C -0.583,0.45 -0.522,0.391 -0.403,0.392 -0.261,0.279 -0.137,0.124 0,0 Z"
         style="fill:#dcdaff;fill-opacity:1;fill-rule:nonzero;stroke:none"
         transform="matrix(1.3333333,0,0,-1.3333333,161.94173,86.116667)"
         clip-path="url(#clipPath16)"
         id="path17" />
    </g>
    <g
       opacity="0.736679"
       id="g20"
       clip-path="url(#clipPath21)">
      <path
         d="m 0,0 0.001,-0.18 0.356,0.002 c 1.071,0.006 2.442,-0.283 4.111,-0.869 4.654,-2.354 6.993,-6.09 7.021,-11.207 l 0.119,-21.777 c 0.041,-7.497 -0.406,-12.853 -1.34,-16.071 -0.701,-2.503 -1.7,-4.77 -2.998,-6.8 -1.062,-1.553 -1.592,-2.389 -1.592,-2.508 l 0.002,-0.534 26.595,0.144 -0.004,0.714 -0.539,0.89 c -1.438,1.896 -2.4,3.556 -2.884,4.982 -1.685,3.442 -2.551,9.566 -2.599,18.372 l -0.276,50.869 0.356,0.002 C 28.016,12.23 35,-2.903 47.282,-29.373 l 10.534,-0.301 0.177,0.179 c 3.009,7.72 7.304,19.196 12.189,32.402 -0.986,0.337 -1.952,0.535 -2.89,0.53 1.092,0.005 2.212,0.259 3.357,0.737 2.403,6.502 4.746,12.83 7.593,20.63 l -0.025,4.752 c -0.089,16.302 -0.493,25.047 -1.213,26.233 -0.893,2.953 -2.151,5.111 -3.741,6.547 L 73.022,62.335 73.027,61.8 c 1.913,-1.775 2.878,-4.091 2.894,-6.947 l 0.005,-0.535 c 0.017,-3.332 -1.089,-7.8 -3.32,-13.405 C 70.843,36.977 66.55,27.909 59.725,13.711 59.486,13.948 58.824,15.015 57.743,16.913 41.045,45.858 32.456,60.686 31.976,61.397 31.975,61.873 31.913,62.11 31.794,62.11 L 3.235,61.956 3.24,61.42 c 1.08,-1.66 2.28,-3.678 3.602,-6.05 1.202,-2.136 2.106,-4.213 2.712,-6.233 1.089,-3.207 1.655,-8.856 1.699,-16.948 L 11.36,12.377 C 11.38,8.688 10.208,5.648 7.841,3.255 5.235,1.099 2.623,0.014 0.005,0 Z"
         style="fill:#dcdaff;fill-opacity:1;fill-rule:nonzero;stroke:none"
         transform="matrix(1.3333333,0,0,-1.3333333,64.257467,169.23227)"
         clip-path="url(#clipPath19)"
         id="path20" />
    </g>
    <g
       opacity="0.736679"
       id="g23"
       clip-path="url(#clipPath24)">
      <path
         d="M 0,0 C 0,-0.119 0.238,-0.595 0.714,-1.428 2.023,-4.76 2.677,-9.52 2.677,-15.707 v -11.424 c 0,-8.687 1.547,-14.518 4.641,-17.493 0.952,-0.833 1.607,-1.249 1.964,-1.249 0.595,0.119 0.892,0.357 0.892,0.714 v 0.178 c 0,0.476 -0.416,0.893 -1.249,1.25 -2.975,2.499 -4.463,8.092 -4.463,16.778 v 11.424 c 0,6.902 -0.773,12.138 -2.32,15.707 C 1.785,0.773 1.368,1.071 0.892,1.071 0.416,1.071 0.119,0.714 0,0 m 1.785,45.516 c 0,-2.261 0.059,-5.95 0.178,-11.067 0,-5.83 -0.654,-10.412 -1.963,-13.744 -0.476,-0.833 -0.714,-1.309 -0.714,-1.428 0,-0.714 0.298,-1.071 0.892,-1.071 0.952,0 1.904,2.202 2.856,6.605 0.476,2.856 0.714,6.009 0.714,9.46 -0.119,6.188 -0.178,9.877 -0.178,11.066 0,5.474 0.952,10.234 2.856,14.28 0.714,1.428 1.547,2.142 2.499,2.142 0.238,0.238 0.357,0.476 0.357,0.714 v 0.178 c 0,0.357 -0.238,0.595 -0.714,0.714 -2.499,0 -4.522,-3.332 -6.069,-9.995 C 2.023,50.99 1.785,48.372 1.785,45.516 Z m 11.602,25.168 c 3.094,0 6.128,-0.774 9.103,-2.321 1.19,-0.833 1.785,-1.606 1.785,-2.32 V 65.686 C 24.037,64.734 23.74,64.258 23.383,64.258 h -0.179 c -0.476,0 -1.19,0.535 -2.142,1.606 -0.476,0.357 -1.011,0.536 -1.606,0.536 h -0.179 c -2.26,0 -3.986,-5.177 -5.176,-15.529 C 13.506,45.873 13.03,36.532 12.673,22.847 12.673,20.229 11.424,17.373 8.925,14.28 7.021,12.376 5.236,11.067 3.57,10.353 1.785,9.401 0.774,8.925 0.536,8.925 4.581,7.616 7.616,5.414 9.639,2.32 c 1.071,-1.784 1.963,-3.748 2.677,-5.89 0.833,-2.38 1.25,-6.604 1.25,-12.673 0.237,-7.973 0.595,-15.053 1.071,-21.241 0.476,-6.783 1.19,-10.59 2.141,-11.423 0.357,-0.476 0.833,-0.714 1.428,-0.714 0.833,0 2.261,1.249 4.284,3.748 0.476,0.595 0.952,0.892 1.428,0.892 0.476,0 0.774,-0.654 0.893,-1.963 -0.238,-1.19 -0.774,-2.558 -1.607,-4.105 -1.785,-2.38 -4.284,-3.57 -7.496,-3.57 h -0.536 c -2.38,0 -5.176,0.714 -8.389,2.142 -1.19,0.595 -2.678,1.725 -4.463,3.391 -2.379,2.975 -3.926,6.485 -4.64,10.531 -0.595,3.451 -0.893,7.259 -0.893,11.424 -0.476,14.755 -1.071,22.788 -1.785,24.097 -0.476,2.261 -1.547,4.283 -3.213,6.068 -1.19,1.309 -2.677,2.499 -4.462,3.57 -0.595,0.476 -0.893,0.952 -0.893,1.428 0,0.833 1.785,2.44 5.355,4.82 2.856,2.499 4.284,8.21 4.284,17.135 0,10.591 0.476,19.099 1.428,25.525 1.428,5.593 3.927,9.698 7.497,12.316 2.856,1.904 5.652,2.856 8.389,2.856 z"
         style="fill:#dcdaff;fill-opacity:1;fill-rule:nonzero;stroke:none"
         transform="matrix(1.3333333,0,0,-1.3333333,26.051067,177.5416)"
         clip-path="url(#clipPath22)"
         id="path23" />
    </g>
    <g
       opacity="0.736679"
       id="g26"
       clip-path="url(#clipPath27)">
      <path
         d="M 0,0 C 0,-0.119 -0.238,-0.595 -0.714,-1.428 -2.023,-4.76 -2.677,-9.52 -2.677,-15.707 v -11.424 c 0,-8.687 -1.547,-14.518 -4.641,-17.493 -0.952,-0.833 -1.607,-1.249 -1.964,-1.249 -0.595,0.119 -0.892,0.357 -0.892,0.714 v 0.178 c 0,0.476 0.416,0.893 1.249,1.25 2.975,2.499 4.463,8.092 4.463,16.778 v 11.424 c 10e-4,6.902 0.773,12.138 2.32,15.707 0.357,0.595 0.773,0.893 1.249,0.893 C -0.417,1.071 -0.119,0.714 0,0 Z m -1.785,45.516 c 10e-4,-2.261 -0.06,-5.95 -0.178,-11.067 0,-5.83 0.654,-10.412 1.963,-13.744 0.476,-0.833 0.714,-1.309 0.714,-1.428 0,-0.714 -0.297,-1.071 -0.892,-1.071 -0.952,0.001 -1.904,2.202 -2.856,6.605 -0.476,2.856 -0.714,6.009 -0.714,9.46 0.119,6.188 0.178,9.877 0.178,11.067 0.002,5.473 -0.952,10.233 -2.856,14.279 -0.714,1.428 -1.547,2.142 -2.499,2.142 -0.238,0.238 -0.357,0.476 -0.357,0.714 v 0.179 c 0,0.357 0.238,0.595 0.714,0.714 2.499,0 4.522,-3.332 6.069,-9.996 0.476,-2.38 0.714,-4.998 0.714,-7.854 z m -11.602,25.168 c -3.094,0.002 -6.128,-0.774 -9.103,-2.321 -1.19,-0.833 -1.785,-1.606 -1.785,-2.32 v -0.357 c 0.238,-0.952 0.535,-1.428 0.892,-1.428 h 0.179 c 0.476,0 1.19,0.535 2.142,1.606 0.476,0.357 1.011,0.536 1.606,0.536 h 0.179 c 2.26,-0.003 3.986,-5.176 5.176,-15.529 0.595,-4.998 1.071,-14.339 1.428,-28.024 -10e-4,-2.618 1.249,-5.473 3.748,-8.567 1.904,-1.904 3.689,-3.213 5.355,-3.927 1.785,-0.952 2.796,-1.428 3.034,-1.428 -4.045,-1.309 -7.08,-3.511 -9.103,-6.604 -1.071,-1.785 -1.963,-3.749 -2.677,-5.891 -0.833,-2.38 -1.25,-6.604 -1.25,-12.673 -0.238,-7.973 -0.595,-15.053 -1.071,-21.241 -0.476,-6.782 -1.19,-10.59 -2.141,-11.423 -0.357,-0.476 -0.833,-0.714 -1.428,-0.714 -0.833,0 -2.261,1.249 -4.284,3.748 -0.476,0.595 -0.952,0.893 -1.428,0.893 -0.476,0 -0.774,-0.655 -0.893,-1.964 0.238,-1.19 0.774,-2.558 1.607,-4.105 1.785,-2.38 4.284,-3.57 7.497,-3.57 h 0.535 c 2.38,0 5.176,0.714 8.389,2.142 1.19,0.595 2.678,1.725 4.463,3.391 2.38,2.975 3.926,6.485 4.64,10.531 0.595,3.451 0.893,7.259 0.893,11.424 0.476,14.755 1.071,22.788 1.785,24.097 0.476,2.261 1.547,4.284 3.213,6.068 1.19,1.309 2.677,2.499 4.462,3.57 0.595,0.476 0.893,0.952 0.893,1.428 0,0.833 -1.785,2.44 -5.355,4.82 -2.856,2.499 -4.284,8.21 -4.284,17.135 0,10.591 -0.476,19.099 -1.428,25.525 -1.428,5.593 -3.927,9.698 -7.497,12.316 -2.856,1.904 -5.652,2.856 -8.389,2.856 z"
         style="fill:#dcdaff;fill-opacity:1;fill-rule:nonzero;stroke:none"
         transform="matrix(1.3333333,0,0,-1.3333333,307.28227,177.2112)"
         clip-path="url(#clipPath25)"
         id="path26" />
    </g>
  </g>
</svg>
